{
  "asset": {
    "generator": "glTF-Transform v4.5.1",
    "version": "2.0"
  },
  "accessors": [
    {
      "type": "SCALAR",
      "componentType": 5123,
      "count": 2034,
      "bufferView": 0,
      "byteOffset": 0
    },
    {
      "type": "SCALAR",
      "componentType": 5123,
      "count": 3123,
      "bufferView": 0,
      "byteOffset": 4068
    },
    {
      "type": "SCALAR",
      "componentType": 5123,
      "count": 2034,
      "bufferView": 0,
      "byteOffset": 10316
    },
    {
      "type": "SCALAR",
      "componentType": 5123,
      "count": 3132,
      "bufferView": 0,
      "byteOffset": 14384
    },
    {
      "type": "SCALAR",
      "componentType": 5123,
      "count": 2034,
      "bufferView": 0,
      "byteOffset": 20648
    },
    {
      "type": "SCALAR",
      "componentType": 5123,
      "count": 3081,
      "bufferView": 0,
      "byteOffset": 24716
    },
    {
      "type": "SCALAR",
      "componentType": 5123,
      "count": 2034,
      "bufferView": 0,
      "byteOffset": 30880
    },
    {
      "type": "SCALAR",
      "componentType": 5123,
      "count": 3069,
      "bufferView": 0,
      "byteOffset": 34948
    },
    {
      "type": "SCALAR",
      "componentType": 5123,
      "count": 2028,
      "bufferView": 0,
      "byteOffset": 41088
    },
    {
      "type": "SCALAR",
      "componentType": 5123,
      "count": 3075,
      "bufferView": 0,
      "byteOffset": 45144
    },
    {
      "type": "SCALAR",
      "componentType": 5123,
      "count": 2034,
      "bufferView": 0,
      "byteOffset": 51296
    },
    {
      "type": "SCALAR",
      "componentType": 5123,
      "count": 2874,
      "bufferView": 0,
      "byteOffset": 55364
    },
    {
      "type": "SCALAR",
      "componentType": 5123,
      "count": 2034,
      "bufferView": 0,
      "byteOffset": 61112
    },
    {
      "type": "SCALAR",
      "componentType": 5123,
      "count": 2937,
      "bufferView": 0,
      "byteOffset": 65180
    },
    {
      "type": "SCALAR",
      "componentType": 5123,
      "count": 2034,
      "bufferView": 0,
      "byteOffset": 71056
    },
    {
      "type": "SCALAR",
      "componentType": 5123,
      "count": 2952,
      "bufferView": 0,
      "byteOffset": 75124
    },
    {
      "type": "SCALAR",
      "componentType": 5123,
      "count": 2034,
      "bufferView": 0,
      "byteOffset": 81028
    },
    {
      "type": "SCALAR",
      "componentType": 5123,
      "count": 2961,
      "bufferView": 0,
      "byteOffset": 85096
    },
    {
      "type": "SCALAR",
      "componentType": 5123,
      "count": 2034,
      "bufferView": 0,
      "byteOffset": 91020
    },
    {
      "type": "SCALAR",
      "componentType": 5123,
      "count": 2862,
      "bufferView": 0,
      "byteOffset": 95088
    },
    {
      "type": "SCALAR",
      "componentType": 5123,
      "count": 2034,
      "bufferView": 0,
      "byteOffset": 100812
    },
    {
      "type": "SCALAR",
      "componentType": 5123,
      "count": 2808,
      "bufferView": 0,
      "byteOffset": 104880
    },
    {
      "type": "SCALAR",
      "componentType": 5123,
      "count": 2034,
      "bufferView": 0,
      "byteOffset": 110496
    },
    {
      "type": "SCALAR",
      "componentType": 5123,
      "count": 3111,
      "bufferView": 0,
      "byteOffset": 114564
    },
    {
      "type": "SCALAR",
      "componentType": 5123,
      "count": 2034,
      "bufferView": 0,
      "byteOffset": 120788
    },
    {
      "type": "SCALAR",
      "componentType": 5123,
      "count": 3090,
      "bufferView": 0,
      "byteOffset": 124856
    },
    {
      "type": "SCALAR",
      "componentType": 5123,
      "count": 2034,
      "bufferView": 0,
      "byteOffset": 131036
    },
    {
      "type": "SCALAR",
      "componentType": 5123,
      "count": 3093,
      "bufferView": 0,
      "byteOffset": 135104
    },
    {
      "type": "SCALAR",
      "componentType": 5123,
      "count": 2034,
      "bufferView": 0,
      "byteOffset": 141292
    },
    {
      "type": "SCALAR",
      "componentType": 5123,
      "count": 3108,
      "bufferView": 0,
      "byteOffset": 145360
    },
    {
      "type": "SCALAR",
      "componentType": 5123,
      "count": 2034,
      "bufferView": 0,
      "byteOffset": 151576
    },
    {
      "type": "SCALAR",
      "componentType": 5123,
      "count": 2976,
      "bufferView": 0,
      "byteOffset": 155644
    },
    {
      "type": "SCALAR",
      "componentType": 5123,
      "count": 2034,
      "bufferView": 0,
      "byteOffset": 161596
    },
    {
      "type": "SCALAR",
      "componentType": 5123,
      "count": 2913,
      "bufferView": 0,
      "byteOffset": 165664
    },
    {
      "type": "SCALAR",
      "componentType": 5123,
      "count": 2034,
      "bufferView": 0,
      "byteOffset": 171492
    },
    {
      "type": "SCALAR",
      "componentType": 5123,
      "count": 2940,
      "bufferView": 0,
      "byteOffset": 175560
    },
    {
      "type": "SCALAR",
      "componentType": 5123,
      "count": 2034,
      "bufferView": 0,
      "byteOffset": 181440
    },
    {
      "type": "SCALAR",
      "componentType": 5123,
      "count": 2883,
      "bufferView": 0,
      "byteOffset": 185508
    },
    {
      "type": "SCALAR",
      "componentType": 5123,
      "count": 2034,
      "bufferView": 0,
      "byteOffset": 191276
    },
    {
      "type": "SCALAR",
      "componentType": 5123,
      "count": 2940,
      "bufferView": 0,
      "byteOffset": 195344
    },
    {
      "type": "VEC3",
      "componentType": 5126,
      "count": 468,
      "max": [
        0.01937238499522209,
        0.23741817474365234,
        0
      ],
      "min": [
        -0.019316473975777626,
        0,
        -0.16306231915950775
      ],
      "bufferView": 1,
      "byteOffset": 0
    },
    {
      "type": "VEC3",
      "componentType": 5126,
      "count": 468,
      "bufferView": 1,
      "byteOffset": 12
    },
    {
      "type": "VEC2",
      "componentType": 5126,
      "count": 468,
      "bufferView": 1,
      "byteOffset": 24
    },
    {
      "type": "VEC3",
      "componentType": 5126,
      "count": 1938,
      "max": [
        0.016494140028953552,
        0.23354820907115936,
        -0.0009089797385968268
      ],
      "min": [
        -0.016401464119553566,
        0.006047448143362999,
        -0.15942445397377014
      ],
      "bufferView": 2,
      "byteOffset": 0
    },
    {
      "type": "VEC3",
      "componentType": 5126,
      "count": 1938,
      "bufferView": 2,
      "byteOffset": 12
    },
    {
      "type": "VEC2",
      "componentType": 5126,
      "count": 1938,
      "bufferView": 2,
      "byteOffset": 24
    },
    {
      "type": "VEC3",
      "componentType": 5126,
      "count": 466,
      "max": [
        0.01416129618883133,
        0.23741817474365234,
        0
      ],
      "min": [
        -0.01426942739635706,
        0,
        -0.16306231915950775
      ],
      "bufferView": 3,
      "byteOffset": 0
    },
    {
      "type": "VEC3",
      "componentType": 5126,
      "count": 466,
      "bufferView": 3,
      "byteOffset": 12
    },
    {
      "type": "VEC2",
      "componentType": 5126,
      "count": 466,
      "bufferView": 3,
      "byteOffset": 24
    },
    {
      "type": "VEC3",
      "componentType": 5126,
      "count": 1994,
      "max": [
        0.011517160572111607,
        0.2335481494665146,
        -0.0009090033709071577
      ],
      "min": [
        -0.011835918761789799,
        0.006047489587217569,
        -0.15942440927028656
      ],
      "bufferView": 4,
      "byteOffset": 0
    },
    {
      "type": "VEC3",
      "componentType": 5126,
      "count": 1994,
      "bufferView": 4,
      "byteOffset": 12
    },
    {
      "type": "VEC2",
      "componentType": 5126,
      "count": 1994,
      "bufferView": 4,
      "byteOffset": 24
    },
    {
      "type": "VEC3",
      "componentType": 5126,
      "count": 475,
      "max": [
        0.011407114565372467,
        0.23741817474365234,
        0
      ],
      "min": [
        -0.011390010826289654,
        0,
        -0.16306231915950775
      ],
      "bufferView": 5,
      "byteOffset": 0
    },
    {
      "type": "VEC3",
      "componentType": 5126,
      "count": 475,
      "bufferView": 5,
      "byteOffset": 12
    },
    {
      "type": "VEC2",
      "componentType": 5126,
      "count": 475,
      "bufferView": 5,
      "byteOffset": 24
    },
    {
      "type": "VEC3",
      "componentType": 5126,
      "count": 1946,
      "max": [
        0.008541706018149853,
        0.2335481494665146,
        -0.0009089915547519922
      ],
      "min": [
        -0.0085503114387393,
        0.006047489587217569,
        -0.15942440927028656
      ],
      "bufferView": 6,
      "byteOffset": 0
    },
    {
      "type": "VEC3",
      "componentType": 5126,
      "count": 1946,
      "bufferView": 6,
      "byteOffset": 12
    },
    {
      "type": "VEC2",
      "componentType": 5126,
      "count": 1946,
      "bufferView": 6,
      "byteOffset": 24
    },
    {
      "type": "VEC3",
      "componentType": 5126,
      "count": 465,
      "max": [
        0.012318329885601997,
        0.23741817474365234,
        0
      ],
      "min": [
        -0.012303679250180721,
        0,
        -0.16306231915950775
      ],
      "bufferView": 7,
      "byteOffset": 0
    },
    {
      "type": "VEC3",
      "componentType": 5126,
      "count": 465,
      "bufferView": 7,
      "byteOffset": 12
    },
    {
      "type": "VEC2",
      "componentType": 5126,
      "count": 465,
      "bufferView": 7,
      "byteOffset": 24
    },
    {
      "type": "VEC3",
      "componentType": 5126,
      "count": 1953,
      "max": [
        0.00962780974805355,
        0.2335481494665146,
        -0.0009090033709071577
      ],
      "min": [
        -0.009627748280763626,
        0.006047489587217569,
        -0.15942440927028656
      ],
      "bufferView": 8,
      "byteOffset": 0
    },
    {
      "type": "VEC3",
      "componentType": 5126,
      "count": 1953,
      "bufferView": 8,
      "byteOffset": 12
    },
    {
      "type": "VEC2",
      "componentType": 5126,
      "count": 1953,
      "bufferView": 8,
      "byteOffset": 24
    },
    {
      "type": "VEC3",
      "componentType": 5126,
      "count": 459,
      "max": [
        0.009569397196173668,
        0.23741817474365234,
        0
      ],
      "min": [
        -0.009583080187439919,
        0,
        -0.16306231915950775
      ],
      "bufferView": 9,
      "byteOffset": 0
    },
    {
      "type": "VEC3",
      "componentType": 5126,
      "count": 459,
      "bufferView": 9,
      "byteOffset": 12
    },
    {
      "type": "VEC2",
      "componentType": 5126,
      "count": 459,
      "bufferView": 9,
      "byteOffset": 24
    },
    {
      "type": "VEC3",
      "componentType": 5126,
      "count": 1967,
      "max": [
        0.006689881905913353,
        0.2335481494665146,
        -0.0009090033709071577
      ],
      "min": [
        -0.0068577490746974945,
        0.006047489587217569,
        -0.15942440927028656
      ],
      "bufferView": 10,
      "byteOffset": 0
    },
    {
      "type": "VEC3",
      "componentType": 5126,
      "count": 1967,
      "bufferView": 10,
      "byteOffset": 12
    },
    {
      "type": "VEC2",
      "componentType": 5126,
      "count": 1967,
      "bufferView": 10,
      "byteOffset": 24
    },
    {
      "type": "VEC3",
      "componentType": 5126,
      "count": 468,
      "max": [
        0.009170538745820522,
        0.23741817474365234,
        0
      ],
      "min": [
        -0.009224987588822842,
        0,
        -0.16306231915950775
      ],
      "bufferView": 11,
      "byteOffset": 0
    },
    {
      "type": "VEC3",
      "componentType": 5126,
      "count": 468,
      "bufferView": 11,
      "byteOffset": 12
    },
    {
      "type": "VEC2",
      "componentType": 5126,
      "count": 468,
      "bufferView": 11,
      "byteOffset": 24
    },
    {
      "type": "VEC3",
      "componentType": 5126,
      "count": 1798,
      "max": [
        0.006322997156530619,
        0.2335481494665146,
        -0.0009090033709071577
      ],
      "min": [
        -0.0065722838044166565,
        0.006047477480024099,
        -0.15942440927028656
      ],
      "bufferView": 12,
      "byteOffset": 0
    },
    {
      "type": "VEC3",
      "componentType": 5126,
      "count": 1798,
      "bufferView": 12,
      "byteOffset": 12
    },
    {
      "type": "VEC2",
      "componentType": 5126,
      "count": 1798,
      "bufferView": 12,
      "byteOffset": 24
    },
    {
      "type": "VEC3",
      "componentType": 5126,
      "count": 464,
      "max": [
        0.012010203674435616,
        0.23741817474365234,
        0
      ],
      "min": [
        -0.012027495540678501,
        0,
        -0.16306231915950775
      ],
      "bufferView": 13,
      "byteOffset": 0
    },
    {
      "type": "VEC3",
      "componentType": 5126,
      "count": 464,
      "bufferView": 13,
      "byteOffset": 12
    },
    {
      "type": "VEC2",
      "componentType": 5126,
      "count": 464,
      "bufferView": 13,
      "byteOffset": 24
    },
    {
      "type": "VEC3",
      "componentType": 5126,
      "count": 1839,
      "max": [
        0.00925163459032774,
        0.2335481494665146,
        -0.0009090033709071577
      ],
      "min": [
        -0.00931568443775177,
        0.006047477480024099,
        -0.15942440927028656
      ],
      "bufferView": 14,
      "byteOffset": 0
    },
    {
      "type": "VEC3",
      "componentType": 5126,
      "count": 1839,
      "bufferView": 14,
      "byteOffset": 12
    },
    {
      "type": "VEC2",
      "componentType": 5126,
      "count": 1839,
      "bufferView": 14,
      "byteOffset": 24
    },
    {
      "type": "VEC3",
      "componentType": 5126,
      "count": 466,
      "max": [
        0.010798434726893902,
        0.23741817474365234,
        0
      ],
      "min": [
        -0.010814642533659935,
        0,
        -0.16306231915950775
      ],
      "bufferView": 15,
      "byteOffset": 0
    },
    {
      "type": "VEC3",
      "componentType": 5126,
      "count": 466,
      "bufferView": 15,
      "byteOffset": 12
    },
    {
      "type": "VEC2",
      "componentType": 5126,
      "count": 466,
      "bufferView": 15,
      "byteOffset": 24
    },
    {
      "type": "VEC3",
      "componentType": 5126,
      "count": 1839,
      "max": [
        0.008051929995417595,
        0.2335481494665146,
        -0.0009090033709071577
      ],
      "min": [
        -0.007959806360304356,
        0.006047477480024099,
        -0.15942440927028656
      ],
      "bufferView": 16,
      "byteOffset": 0
    },
    {
      "type": "VEC3",
      "componentType": 5126,
      "count": 1839,
      "bufferView": 16,
      "byteOffset": 12
    },
    {
      "type": "VEC2",
      "componentType": 5126,
      "count": 1839,
      "bufferView": 16,
      "byteOffset": 24
    },
    {
      "type": "VEC3",
      "componentType": 5126,
      "count": 460,
      "max": [
        0.01079279650002718,
        0.23741817474365234,
        0
      ],
      "min": [
        -0.010820280760526657,
        0,
        -0.16306231915950775
      ],
      "bufferView": 17,
      "byteOffset": 0
    },
    {
      "type": "VEC3",
      "componentType": 5126,
      "count": 460,
      "bufferView": 17,
      "byteOffset": 12
    },
    {
      "type": "VEC2",
      "componentType": 5126,
      "count": 460,
      "bufferView": 17,
      "byteOffset": 24
    },
    {
      "type": "VEC3",
      "componentType": 5126,
      "count": 1844,
      "max": [
        0.00803411565721035,
        0.2335481494665146,
        -0.0009090033709071577
      ],
      "min": [
        -0.00794385839253664,
        0.006047477480024099,
        -0.15942440927028656
      ],
      "bufferView": 18,
      "byteOffset": 0
    },
    {
      "type": "VEC3",
      "componentType": 5126,
      "count": 1844,
      "bufferView": 18,
      "byteOffset": 12
    },
    {
      "type": "VEC2",
      "componentType": 5126,
      "count": 1844,
      "bufferView": 18,
      "byteOffset": 24
    },
    {
      "type": "VEC3",
      "componentType": 5126,
      "count": 462,
      "max": [
        0.01078562531620264,
        0.23741817474365234,
        0
      ],
      "min": [
        -0.010820280760526657,
        0,
        -0.16306231915950775
      ],
      "bufferView": 19,
      "byteOffset": 0
    },
    {
      "type": "VEC3",
      "componentType": 5126,
      "count": 462,
      "bufferView": 19,
      "byteOffset": 12
    },
    {
      "type": "VEC2",
      "componentType": 5126,
      "count": 462,
      "bufferView": 19,
      "byteOffset": 24
    },
    {
      "type": "VEC3",
      "componentType": 5126,
      "count": 1787,
      "max": [
        0.007982125505805016,
        0.2335481494665146,
        -0.0009089915547519922
      ],
      "min": [
        -0.008167654275894165,
        0.006047477480024099,
        -0.15942440927028656
      ],
      "bufferView": 20,
      "byteOffset": 0
    },
    {
      "type": "VEC3",
      "componentType": 5126,
      "count": 1787,
      "bufferView": 20,
      "byteOffset": 12
    },
    {
      "type": "VEC2",
      "componentType": 5126,
      "count": 1787,
      "bufferView": 20,
      "byteOffset": 24
    },
    {
      "type": "VEC3",
      "componentType": 5126,
      "count": 463,
      "max": [
        0.008958311751484871,
        0.23741817474365234,
        0
      ],
      "min": [
        -0.008976759389042854,
        0,
        -0.16306231915950775
      ],
      "bufferView": 21,
      "byteOffset": 0
    },
    {
      "type": "VEC3",
      "componentType": 5126,
      "count": 463,
      "bufferView": 21,
      "byteOffset": 12
    },
    {
      "type": "VEC2",
      "componentType": 5126,
      "count": 463,
      "bufferView": 21,
      "byteOffset": 24
    },
    {
      "type": "VEC3",
      "componentType": 5126,
      "count": 1755,
      "max": [
        0.006090897601097822,
        0.2335481494665146,
        -0.0009089915547519922
      ],
      "min": [
        -0.006357812788337469,
        0.006047477480024099,
        -0.15942440927028656
      ],
      "bufferView": 22,
      "byteOffset": 0
    },
    {
      "type": "VEC3",
      "componentType": 5126,
      "count": 1755,
      "bufferView": 22,
      "byteOffset": 12
    },
    {
      "type": "VEC2",
      "componentType": 5126,
      "count": 1755,
      "bufferView": 22,
      "byteOffset": 24
    },
    {
      "type": "VEC3",
      "componentType": 5126,
      "count": 466,
      "max": [
        0.011360734701156616,
        0.23741817474365234,
        0
      ],
      "min": [
        -0.01139145065099001,
        0,
        -0.16306231915950775
      ],
      "bufferView": 23,
      "byteOffset": 0
    },
    {
      "type": "VEC3",
      "componentType": 5126,
      "count": 466,
      "bufferView": 23,
      "byteOffset": 12
    },
    {
      "type": "VEC2",
      "componentType": 5126,
      "count": 466,
      "bufferView": 23,
      "byteOffset": 24
    },
    {
      "type": "VEC3",
      "componentType": 5126,
      "count": 1990,
      "max": [
        0.008506884798407555,
        0.2335481494665146,
        -0.0009089915547519922
      ],
      "min": [
        -0.008802840486168861,
        0.006047489587217569,
        -0.15942440927028656
      ],
      "bufferView": 24,
      "byteOffset": 0
    },
    {
      "type": "VEC3",
      "componentType": 5126,
      "count": 1990,
      "bufferView": 24,
      "byteOffset": 12
    },
    {
      "type": "VEC2",
      "componentType": 5126,
      "count": 1990,
      "bufferView": 24,
      "byteOffset": 24
    },
    {
      "type": "VEC3",
      "componentType": 5126,
      "count": 469,
      "max": [
        0.018301209434866905,
        0.23741817474365234,
        0
      ],
      "min": [
        -0.018250109627842903,
        0,
        -0.16306231915950775
      ],
      "bufferView": 25,
      "byteOffset": 0
    },
    {
      "type": "VEC3",
      "componentType": 5126,
      "count": 469,
      "bufferView": 25,
      "byteOffset": 12
    },
    {
      "type": "VEC2",
      "componentType": 5126,
      "count": 469,
      "bufferView": 25,
      "byteOffset": 24
    },
    {
      "type": "VEC3",
      "componentType": 5126,
      "count": 1933,
      "max": [
        0.015585752204060555,
        0.2335481494665146,
        -0.0009089915547519922
      ],
      "min": [
        -0.015735484659671783,
        0.006047489587217569,
        -0.15942440927028656
      ],
      "bufferView": 26,
      "byteOffset": 0
    },
    {
      "type": "VEC3",
      "componentType": 5126,
      "count": 1933,
      "bufferView": 26,
      "byteOffset": 12
    },
    {
      "type": "VEC2",
      "componentType": 5126,
      "count": 1933,
      "bufferView": 26,
      "byteOffset": 24
    },
    {
      "type": "VEC3",
      "componentType": 5126,
      "count": 468,
      "max": [
        0.016351904720067978,
        0.23741817474365234,
        0
      ],
      "min": [
        -0.01628226228058338,
        0,
        -0.16306231915950775
      ],
      "bufferView": 27,
      "byteOffset": 0
    },
    {
      "type": "VEC3",
      "componentType": 5126,
      "count": 468,
      "bufferView": 27,
      "byteOffset": 12
    },
    {
      "type": "VEC2",
      "componentType": 5126,
      "count": 468,
      "bufferView": 27,
      "byteOffset": 24
    },
    {
      "type": "VEC3",
      "componentType": 5126,
      "count": 1949,
      "max": [
        0.013619603589177132,
        0.2335481494665146,
        -0.0009090033709071577
      ],
      "min": [
        -0.013788290321826935,
        0.006047489587217569,
        -0.15942440927028656
      ],
      "bufferView": 28,
      "byteOffset": 0
    },
    {
      "type": "VEC3",
      "componentType": 5126,
      "count": 1949,
      "bufferView": 28,
      "byteOffset": 12
    },
    {
      "type": "VEC2",
      "componentType": 5126,
      "count": 1949,
      "bufferView": 28,
      "byteOffset": 24
    },
    {
      "type": "VEC3",
      "componentType": 5126,
      "count": 464,
      "max": [
        0.01766282692551613,
        0.23741817474365234,
        0
      ],
      "min": [
        -0.017644047737121582,
        0,
        -0.16306231915950775
      ],
      "bufferView": 29,
      "byteOffset": 0
    },
    {
      "type": "VEC3",
      "componentType": 5126,
      "count": 464,
      "bufferView": 29,
      "byteOffset": 12
    },
    {
      "type": "VEC2",
      "componentType": 5126,
      "count": 464,
      "bufferView": 29,
      "byteOffset": 24
    },
    {
      "type": "VEC3",
      "componentType": 5126,
      "count": 1963,
      "max": [
        0.014881071634590626,
        0.2335481494665146,
        -0.0009089915547519922
      ],
      "min": [
        -0.015422468073666096,
        0.006047489587217569,
        -0.15942440927028656
      ],
      "bufferView": 30,
      "byteOffset": 0
    },
    {
      "type": "VEC3",
      "componentType": 5126,
      "count": 1963,
      "bufferView": 30,
      "byteOffset": 12
    },
    {
      "type": "VEC2",
      "componentType": 5126,
      "count": 1963,
      "bufferView": 30,
      "byteOffset": 24
    },
    {
      "type": "VEC3",
      "componentType": 5126,
      "count": 464,
      "max": [
        0.012361902743577957,
        0.23741814494132996,
        0
      ],
      "min": [
        -0.01231264416128397,
        -1.1795664001112982e-8,
        -0.16306231915950775
      ],
      "bufferView": 31,
      "byteOffset": 0
    },
    {
      "type": "VEC3",
      "componentType": 5126,
      "count": 464,
      "bufferView": 31,
      "byteOffset": 12
    },
    {
      "type": "VEC2",
      "componentType": 5126,
      "count": 464,
      "bufferView": 31,
      "byteOffset": 24
    },
    {
      "type": "VEC3",
      "componentType": 5126,
      "count": 1845,
      "max": [
        0.009735752828419209,
        0.2335481494665146,
        -0.0009089915547519922
      ],
      "min": [
        -0.009593134745955467,
        0.006047477480024099,
        -0.15942440927028656
      ],
      "bufferView": 32,
      "byteOffset": 0
    },
    {
      "type": "VEC3",
      "componentType": 5126,
      "count": 1845,
      "bufferView": 32,
      "byteOffset": 12
    },
    {
      "type": "VEC2",
      "componentType": 5126,
      "count": 1845,
      "bufferView": 32,
      "byteOffset": 24
    },
    {
      "type": "VEC3",
      "componentType": 5126,
      "count": 463,
      "max": [
        0.017824852839112282,
        0.23741814494132996,
        0
      ],
      "min": [
        -0.017821267247200012,
        -1.1795664001112982e-8,
        -0.16306231915950775
      ],
      "bufferView": 33,
      "byteOffset": 0
    },
    {
      "type": "VEC3",
      "componentType": 5126,
      "count": 463,
      "bufferView": 33,
      "byteOffset": 12
    },
    {
      "type": "VEC2",
      "componentType": 5126,
      "count": 463,
      "bufferView": 33,
      "byteOffset": 24
    },
    {
      "type": "VEC3",
      "componentType": 5126,
      "count": 1804,
      "max": [
        0.015137162059545517,
        0.2335481494665146,
        -0.0009089915547519922
      ],
      "min": [
        -0.015397505834698677,
        0.006047477480024099,
        -0.15942440927028656
      ],
      "bufferView": 34,
      "byteOffset": 0
    },
    {
      "type": "VEC3",
      "componentType": 5126,
      "count": 1804,
      "bufferView": 34,
      "byteOffset": 12
    },
    {
      "type": "VEC2",
      "componentType": 5126,
      "count": 1804,
      "bufferView": 34,
      "byteOffset": 24
    },
    {
      "type": "VEC3",
      "componentType": 5126,
      "count": 459,
      "max": [
        0.010910894721746445,
        0.23741814494132996,
        0
      ],
      "min": [
        -0.01090452540665865,
        -1.1795664001112982e-8,
        -0.16306231915950775
      ],
      "bufferView": 35,
      "byteOffset": 0
    },
    {
      "type": "VEC3",
      "componentType": 5126,
      "count": 459,
      "bufferView": 35,
      "byteOffset": 12
    },
    {
      "type": "VEC2",
      "componentType": 5126,
      "count": 459,
      "bufferView": 35,
      "byteOffset": 24
    },
    {
      "type": "VEC3",
      "componentType": 5126,
      "count": 1834,
      "max": [
        0.008175608702003956,
        0.2335481494665146,
        -0.0009090033709071577
      ],
      "min": [
        -0.00838317722082138,
        0.006047477480024099,
        -0.15942440927028656
      ],
      "bufferView": 36,
      "byteOffset": 0
    },
    {
      "type": "VEC3",
      "componentType": 5126,
      "count": 1834,
      "bufferView": 36,
      "byteOffset": 12
    },
    {
      "type": "VEC2",
      "componentType": 5126,
      "count": 1834,
      "bufferView": 36,
      "byteOffset": 24
    },
    {
      "type": "VEC3",
      "componentType": 5126,
      "count": 462,
      "max": [
        0.0095955366268754,
        0.23741814494132996,
        0
      ],
      "min": [
        -0.00960686057806015,
        -1.1795664001112982e-8,
        -0.16306231915950775
      ],
      "bufferView": 37,
      "byteOffset": 0
    },
    {
      "type": "VEC3",
      "componentType": 5126,
      "count": 462,
      "bufferView": 37,
      "byteOffset": 12
    },
    {
      "type": "VEC2",
      "componentType": 5126,
      "count": 462,
      "bufferView": 37,
      "byteOffset": 24
    },
    {
      "type": "VEC3",
      "componentType": 5126,
      "count": 1805,
      "max": [
        0.0067734322510659695,
        0.2335481494665146,
        -0.0009090033709071577
      ],
      "min": [
        -0.007032106630504131,
        0.006047477480024099,
        -0.15942440927028656
      ],
      "bufferView": 38,
      "byteOffset": 0
    },
    {
      "type": "VEC3",
      "componentType": 5126,
      "count": 1805,
      "bufferView": 38,
      "byteOffset": 12
    },
    {
      "type": "VEC2",
      "componentType": 5126,
      "count": 1805,
      "bufferView": 38,
      "byteOffset": 24
    },
    {
      "type": "VEC3",
      "componentType": 5126,
      "count": 466,
      "max": [
        0.011898239143192768,
        0.23741814494132996,
        0
      ],
      "min": [
        -0.011888095177710056,
        -1.1795664001112982e-8,
        -0.16306231915950775
      ],
      "bufferView": 39,
      "byteOffset": 0
    },
    {
      "type": "VEC3",
      "componentType": 5126,
      "count": 466,
      "bufferView": 39,
      "byteOffset": 12
    },
    {
      "type": "VEC2",
      "componentType": 5126,
      "count": 466,
      "bufferView": 39,
      "byteOffset": 24
    },
    {
      "type": "VEC3",
      "componentType": 5126,
      "count": 1836,
      "max": [
        0.009206227958202362,
        0.2335481494665146,
        -0.0009090033709071577
      ],
      "min": [
        -0.009144631214439869,
        0.006047477480024099,
        -0.15942440927028656
      ],
      "bufferView": 40,
      "byteOffset": 0
    },
    {
      "type": "VEC3",
      "componentType": 5126,
      "count": 1836,
      "bufferView": 40,
      "byteOffset": 12
    },
    {
      "type": "VEC2",
      "componentType": 5126,
      "count": 1836,
      "bufferView": 40,
      "byteOffset": 24
    }
  ],
  "bufferViews": [
    {
      "buffer": 0,
      "byteOffset": 0,
      "byteLength": 201224,
      "target": 34963
    },
    {
      "buffer": 0,
      "byteOffset": 201224,
      "byteLength": 14976,
      "byteStride": 32,
      "target": 34962
    },
    {
      "buffer": 0,
      "byteOffset": 216200,
      "byteLength": 62016,
      "byteStride": 32,
      "target": 34962
    },
    {
      "buffer": 0,
      "byteOffset": 278216,
      "byteLength": 14912,
      "byteStride": 32,
      "target": 34962
    },
    {
      "buffer": 0,
      "byteOffset": 293128,
      "byteLength": 63808,
      "byteStride": 32,
      "target": 34962
    },
    {
      "buffer": 0,
      "byteOffset": 356936,
      "byteLength": 15200,
      "byteStride": 32,
      "target": 34962
    },
    {
      "buffer": 0,
      "byteOffset": 372136,
      "byteLength": 62272,
      "byteStride": 32,
      "target": 34962
    },
    {
      "buffer": 0,
      "byteOffset": 434408,
      "byteLength": 14880,
      "byteStride": 32,
      "target": 34962
    },
    {
      "buffer": 0,
      "byteOffset": 449288,
      "byteLength": 62496,
      "byteStride": 32,
      "target": 34962
    },
    {
      "buffer": 0,
      "byteOffset": 511784,
      "byteLength": 14688,
      "byteStride": 32,
      "target": 34962
    },
    {
      "buffer": 0,
      "byteOffset": 526472,
      "byteLength": 62944,
      "byteStride": 32,
      "target": 34962
    },
    {
      "buffer": 0,
      "byteOffset": 589416,
      "byteLength": 14976,
      "byteStride": 32,
      "target": 34962
    },
    {
      "buffer": 0,
      "byteOffset": 604392,
      "byteLength": 57536,
      "byteStride": 32,
      "target": 34962
    },
    {
      "buffer": 0,
      "byteOffset": 661928,
      "byteLength": 14848,
      "byteStride": 32,
      "target": 34962
    },
    {
      "buffer": 0,
      "byteOffset": 676776,
      "byteLength": 58848,
      "byteStride": 32,
      "target": 34962
    },
    {
      "buffer": 0,
      "byteOffset": 735624,
      "byteLength": 14912,
      "byteStride": 32,
      "target": 34962
    },
    {
      "buffer": 0,
      "byteOffset": 750536,
      "byteLength": 58848,
      "byteStride": 32,
      "target": 34962
    },
    {
      "buffer": 0,
      "byteOffset": 809384,
      "byteLength": 14720,
      "byteStride": 32,
      "target": 34962
    },
    {
      "buffer": 0,
      "byteOffset": 824104,
      "byteLength": 59008,
      "byteStride": 32,
      "target": 34962
    },
    {
      "buffer": 0,
      "byteOffset": 883112,
      "byteLength": 14784,
      "byteStride": 32,
      "target": 34962
    },
    {
      "buffer": 0,
      "byteOffset": 897896,
      "byteLength": 57184,
      "byteStride": 32,
      "target": 34962
    },
    {
      "buffer": 0,
      "byteOffset": 955080,
      "byteLength": 14816,
      "byteStride": 32,
      "target": 34962
    },
    {
      "buffer": 0,
      "byteOffset": 969896,
      "byteLength": 56160,
      "byteStride": 32,
      "target": 34962
    },
    {
      "buffer": 0,
      "byteOffset": 1026056,
      "byteLength": 14912,
      "byteStride": 32,
      "target": 34962
    },
    {
      "buffer": 0,
      "byteOffset": 1040968,
      "byteLength": 63680,
      "byteStride": 32,
      "target": 34962
    },
    {
      "buffer": 0,
      "byteOffset": 1104648,
      "byteLength": 15008,
      "byteStride": 32,
      "target": 34962
    },
    {
      "buffer": 0,
      "byteOffset": 1119656,
      "byteLength": 61856,
      "byteStride": 32,
      "target": 34962
    },
    {
      "buffer": 0,
      "byteOffset": 1181512,
      "byteLength": 14976,
      "byteStride": 32,
      "target": 34962
    },
    {
      "buffer": 0,
      "byteOffset": 1196488,
      "byteLength": 62368,
      "byteStride": 32,
      "target": 34962
    },
    {
      "buffer": 0,
      "byteOffset": 1258856,
      "byteLength": 14848,
      "byteStride": 32,
      "target": 34962
    },
    {
      "buffer": 0,
      "byteOffset": 1273704,
      "byteLength": 62816,
      "byteStride": 32,
      "target": 34962
    },
    {
      "buffer": 0,
      "byteOffset": 1336520,
      "byteLength": 14848,
      "byteStride": 32,
      "target": 34962
    },
    {
      "buffer": 0,
      "byteOffset": 1351368,
      "byteLength": 59040,
      "byteStride": 32,
      "target": 34962
    },
    {
      "buffer": 0,
      "byteOffset": 1410408,
      "byteLength": 14816,
      "byteStride": 32,
      "target": 34962
    },
    {
      "buffer": 0,
      "byteOffset": 1425224,
      "byteLength": 57728,
      "byteStride": 32,
      "target": 34962
    },
    {
      "buffer": 0,
      "byteOffset": 1482952,
      "byteLength": 14688,
      "byteStride": 32,
      "target": 34962
    },
    {
      "buffer": 0,
      "byteOffset": 1497640,
      "byteLength": 58688,
      "byteStride": 32,
      "target": 34962
    },
    {
      "buffer": 0,
      "byteOffset": 1556328,
      "byteLength": 14784,
      "byteStride": 32,
      "target": 34962
    },
    {
      "buffer": 0,
      "byteOffset": 1571112,
      "byteLength": 57760,
      "byteStride": 32,
      "target": 34962
    },
    {
      "buffer": 0,
      "byteOffset": 1628872,
      "byteLength": 14912,
      "byteStride": 32,
      "target": 34962
    },
    {
      "buffer": 0,
      "byteOffset": 1643784,
      "byteLength": 58752,
      "byteStride": 32,
      "target": 34962
    }
  ],
  "samplers": [
    {
      "magFilter": 9729,
      "minFilter": 9987,
      "wrapS": 10497,
      "wrapT": 10497
    }
  ],
  "textures": [
    {
      "source": 1,
      "sampler": 0
    },
    {
      "source": 0,
      "sampler": 0
    },
    {
      "source": 2,
      "sampler": 0
    },
    {
      "source": 4,
      "sampler": 0
    },
    {
      "source": 3,
      "sampler": 0
    },
    {
      "source": 5,
      "sampler": 0
    }
  ],
  "images": [
    {
      "name": "book_encyclopedia_set_01_cover_nor_gl",
      "mimeType": "image/jpeg",
      "uri": "textures/book_encyclopedia_set_01_cover_nor_gl_1k.jpg"
    },
    {
      "name": "book_encyclopedia_set_01_cover_diff",
      "mimeType": "image/jpeg",
      "uri": "textures/book_encyclopedia_set_01_cover_diff_1k.jpg"
    },
    {
      "name": "book_encyclopedia_set_01_cover_metallic-book_encyclopedia_set_01_cover_roughness",
      "mimeType": "image/jpeg",
      "uri": "textures/book_encyclopedia_set_01_cover_arm_1k.jpg"
    },
    {
      "name": "book_encyclopedia_set_01_paper_nor_gl",
      "mimeType": "image/jpeg",
      "uri": "textures/book_encyclopedia_set_01_paper_nor_gl_1k.jpg"
    },
    {
      "name": "book_encyclopedia_set_01_paper_diff",
      "mimeType": "image/jpeg",
      "uri": "textures/book_encyclopedia_set_01_paper_diff_1k.jpg"
    },
    {
      "name": "book_encyclopedia_set_01_paper_roughness",
      "mimeType": "image/jpeg",
      "uri": "textures/book_encyclopedia_set_01_paper_roughness_1k.jpg"
    }
  ],
  "buffers": [
    {
      "uri": "book_encyclopedia_set_01.bin",
      "byteLength": 1702536
    }
  ],
  "materials": [
    {
      "name": "book_encyclopedia_set_01_cover",
      "doubleSided": true,
      "pbrMetallicRoughness": {
        "baseColorTexture": {
          "index": 0
        },
        "metallicRoughnessTexture": {
          "index": 2
        }
      },
      "normalTexture": {
        "index": 1
      }
    },
    {
      "name": "book_encyclopedia_set_01_paper",
      "doubleSided": true,
      "pbrMetallicRoughness": {
        "metallicFactor": 0,
        "baseColorTexture": {
          "index": 3
        },
        "metallicRoughnessTexture": {
          "index": 5
        }
      },
      "normalTexture": {
        "index": 4
      }
    }
  ],
  "meshes": [
    {
      "name": "Cube.004",
      "primitives": [
        {
          "attributes": {
            "POSITION": 40,
            "NORMAL": 41,
            "TEXCOORD_0": 42
          },
          "mode": 4,
          "material": 0,
          "indices": 0
        },
        {
          "attributes": {
            "POSITION": 43,
            "NORMAL": 44,
            "TEXCOORD_0": 45
          },
          "mode": 4,
          "material": 1,
          "indices": 1
        }
      ]
    },
    {
      "name": "Cube.049",
      "primitives": [
        {
          "attributes": {
            "POSITION": 46,
            "NORMAL": 47,
            "TEXCOORD_0": 48
          },
          "mode": 4,
          "material": 0,
          "indices": 2
        },
        {
          "attributes": {
            "POSITION": 49,
            "NORMAL": 50,
            "TEXCOORD_0": 51
          },
          "mode": 4,
          "material": 1,
          "indices": 3
        }
      ]
    },
    {
      "name": "Cube.050",
      "primitives": [
        {
          "attributes": {
            "POSITION": 52,
            "NORMAL": 53,
            "TEXCOORD_0": 54
          },
          "mode": 4,
          "material": 0,
          "indices": 4
        },
        {
          "attributes": {
            "POSITION": 55,
            "NORMAL": 56,
            "TEXCOORD_0": 57
          },
          "mode": 4,
          "material": 1,
          "indices": 5
        }
      ]
    },
    {
      "name": "Cube.051",
      "primitives": [
        {
          "attributes": {
            "POSITION": 58,
            "NORMAL": 59,
            "TEXCOORD_0": 60
          },
          "mode": 4,
          "material": 0,
          "indices": 6
        },
        {
          "attributes": {
            "POSITION": 61,
            "NORMAL": 62,
            "TEXCOORD_0": 63
          },
          "mode": 4,
          "material": 1,
          "indices": 7
        }
      ]
    },
    {
      "name": "Cube.052",
      "primitives": [
        {
          "attributes": {
            "POSITION": 64,
            "NORMAL": 65,
            "TEXCOORD_0": 66
          },
          "mode": 4,
          "material": 0,
          "indices": 8
        },
        {
          "attributes": {
            "POSITION": 67,
            "NORMAL": 68,
            "TEXCOORD_0": 69
          },
          "mode": 4,
          "material": 1,
          "indices": 9
        }
      ]
    },
    {
      "name": "Cube.053",
      "primitives": [
        {
          "attributes": {
            "POSITION": 70,
            "NORMAL": 71,
            "TEXCOORD_0": 72
          },
          "mode": 4,
          "material": 0,
          "indices": 10
        },
        {
          "attributes": {
            "POSITION": 73,
            "NORMAL": 74,
            "TEXCOORD_0": 75
          },
          "mode": 4,
          "material": 1,
          "indices": 11
        }
      ]
    },
    {
      "name": "Cube.054",
      "primitives": [
        {
          "attributes": {
            "POSITION": 76,
            "NORMAL": 77,
            "TEXCOORD_0": 78
          },
          "mode": 4,
          "material": 0,
          "indices": 12
        },
        {
          "attributes": {
            "POSITION": 79,
            "NORMAL": 80,
            "TEXCOORD_0": 81
          },
          "mode": 4,
          "material": 1,
          "indices": 13
        }
      ]
    },
    {
      "name": "Cube.055",
      "primitives": [
        {
          "attributes": {
            "POSITION": 82,
            "NORMAL": 83,
            "TEXCOORD_0": 84
          },
          "mode": 4,
          "material": 0,
          "indices": 14
        },
        {
          "attributes": {
            "POSITION": 85,
            "NORMAL": 86,
            "TEXCOORD_0": 87
          },
          "mode": 4,
          "material": 1,
          "indices": 15
        }
      ]
    },
    {
      "name": "Cube.056",
      "primitives": [
        {
          "attributes": {
            "POSITION": 88,
            "NORMAL": 89,
            "TEXCOORD_0": 90
          },
          "mode": 4,
          "material": 0,
          "indices": 16
        },
        {
          "attributes": {
            "POSITION": 91,
            "NORMAL": 92,
            "TEXCOORD_0": 93
          },
          "mode": 4,
          "material": 1,
          "indices": 17
        }
      ]
    },
    {
      "name": "Cube.057",
      "primitives": [
        {
          "attributes": {
            "POSITION": 94,
            "NORMAL": 95,
            "TEXCOORD_0": 96
          },
          "mode": 4,
          "material": 0,
          "indices": 18
        },
        {
          "attributes": {
            "POSITION": 97,
            "NORMAL": 98,
            "TEXCOORD_0": 99
          },
          "mode": 4,
          "material": 1,
          "indices": 19
        }
      ]
    },
    {
      "name": "Cube.058",
      "primitives": [
        {
          "attributes": {
            "POSITION": 100,
            "NORMAL": 101,
            "TEXCOORD_0": 102
          },
          "mode": 4,
          "material": 0,
          "indices": 20
        },
        {
          "attributes": {
            "POSITION": 103,
            "NORMAL": 104,
            "TEXCOORD_0": 105
          },
          "mode": 4,
          "material": 1,
          "indices": 21
        }
      ]
    },
    {
      "name": "Cube.059",
      "primitives": [
        {
          "attributes": {
            "POSITION": 106,
            "NORMAL": 107,
            "TEXCOORD_0": 108
          },
          "mode": 4,
          "material": 0,
          "indices": 22
        },
        {
          "attributes": {
            "POSITION": 109,
            "NORMAL": 110,
            "TEXCOORD_0": 111
          },
          "mode": 4,
          "material": 1,
          "indices": 23
        }
      ]
    },
    {
      "name": "Cube.060",
      "primitives": [
        {
          "attributes": {
            "POSITION": 112,
            "NORMAL": 113,
            "TEXCOORD_0": 114
          },
          "mode": 4,
          "material": 0,
          "indices": 24
        },
        {
          "attributes": {
            "POSITION": 115,
            "NORMAL": 116,
            "TEXCOORD_0": 117
          },
          "mode": 4,
          "material": 1,
          "indices": 25
        }
      ]
    },
    {
      "name": "Cube.061",
      "primitives": [
        {
          "attributes": {
            "POSITION": 118,
            "NORMAL": 119,
            "TEXCOORD_0": 120
          },
          "mode": 4,
          "material": 0,
          "indices": 26
        },
        {
          "attributes": {
            "POSITION": 121,
            "NORMAL": 122,
            "TEXCOORD_0": 123
          },
          "mode": 4,
          "material": 1,
          "indices": 27
        }
      ]
    },
    {
      "name": "Cube.062",
      "primitives": [
        {
          "attributes": {
            "POSITION": 124,
            "NORMAL": 125,
            "TEXCOORD_0": 126
          },
          "mode": 4,
          "material": 0,
          "indices": 28
        },
        {
          "attributes": {
            "POSITION": 127,
            "NORMAL": 128,
            "TEXCOORD_0": 129
          },
          "mode": 4,
          "material": 1,
          "indices": 29
        }
      ]
    },
    {
      "name": "Cube.063",
      "primitives": [
        {
          "attributes": {
            "POSITION": 130,
            "NORMAL": 131,
            "TEXCOORD_0": 132
          },
          "mode": 4,
          "material": 0,
          "indices": 30
        },
        {
          "attributes": {
            "POSITION": 133,
            "NORMAL": 134,
            "TEXCOORD_0": 135
          },
          "mode": 4,
          "material": 1,
          "indices": 31
        }
      ]
    },
    {
      "name": "Cube.064",
      "primitives": [
        {
          "attributes": {
            "POSITION": 136,
            "NORMAL": 137,
            "TEXCOORD_0": 138
          },
          "mode": 4,
          "material": 0,
          "indices": 32
        },
        {
          "attributes": {
            "POSITION": 139,
            "NORMAL": 140,
            "TEXCOORD_0": 141
          },
          "mode": 4,
          "material": 1,
          "indices": 33
        }
      ]
    },
    {
      "name": "Cube.065",
      "primitives": [
        {
          "attributes": {
            "POSITION": 142,
            "NORMAL": 143,
            "TEXCOORD_0": 144
          },
          "mode": 4,
          "material": 0,
          "indices": 34
        },
        {
          "attributes": {
            "POSITION": 145,
            "NORMAL": 146,
            "TEXCOORD_0": 147
          },
          "mode": 4,
          "material": 1,
          "indices": 35
        }
      ]
    },
    {
      "name": "Cube.066",
      "primitives": [
        {
          "attributes": {
            "POSITION": 148,
            "NORMAL": 149,
            "TEXCOORD_0": 150
          },
          "mode": 4,
          "material": 0,
          "indices": 36
        },
        {
          "attributes": {
            "POSITION": 151,
            "NORMAL": 152,
            "TEXCOORD_0": 153
          },
          "mode": 4,
          "material": 1,
          "indices": 37
        }
      ]
    },
    {
      "name": "Cube.067",
      "primitives": [
        {
          "attributes": {
            "POSITION": 154,
            "NORMAL": 155,
            "TEXCOORD_0": 156
          },
          "mode": 4,
          "material": 0,
          "indices": 38
        },
        {
          "attributes": {
            "POSITION": 157,
            "NORMAL": 158,
            "TEXCOORD_0": 159
          },
          "mode": 4,
          "material": 1,
          "indices": 39
        }
      ]
    }
  ],
  "nodes": [
    {
      "name": "book_encyclopedia_set_01_book01",
      "translation": [
        0,
        0,
        0.10099244862794876
      ],
      "mesh": 0
    },
    {
      "name": "book_encyclopedia_set_01_book02",
      "translation": [
        0.03461821377277374,
        0,
        0.10099244862794876
      ],
      "mesh": 1
    },
    {
      "name": "book_encyclopedia_set_01_book03",
      "translation": [
        0.06154705584049225,
        0,
        0.10099244117736816
      ],
      "mesh": 2
    },
    {
      "name": "book_encyclopedia_set_01_book04",
      "translation": [
        0.08769135177135468,
        0,
        0.10099244862794876
      ],
      "mesh": 3
    },
    {
      "name": "book_encyclopedia_set_01_book05",
      "translation": [
        0.11028188467025757,
        0,
        0.10099244862794876
      ],
      "mesh": 4
    },
    {
      "name": "book_encyclopedia_set_01_book06",
      "translation": [
        0.13115936517715454,
        0,
        0.10099244862794876
      ],
      "mesh": 5
    },
    {
      "name": "book_encyclopedia_set_01_book07",
      "translation": [
        0.15419802069664001,
        0,
        0.10099244862794876
      ],
      "mesh": 6
    },
    {
      "name": "book_encyclopedia_set_01_book08",
      "translation": [
        0.17794930934906006,
        0,
        0.10099244862794876
      ],
      "mesh": 7
    },
    {
      "name": "book_encyclopedia_set_01_book09",
      "translation": [
        0.2007046788930893,
        0,
        0.10099244862794876
      ],
      "mesh": 8
    },
    {
      "name": "book_encyclopedia_set_01_book10",
      "translation": [
        0.2235286831855774,
        0,
        0.10099244117736816
      ],
      "mesh": 9
    },
    {
      "name": "book_encyclopedia_set_01_book11",
      "translation": [
        0.2447497546672821,
        0,
        0.10099244117736816
      ],
      "mesh": 10
    },
    {
      "name": "book_encyclopedia_set_01_book12",
      "translation": [
        0.2677144706249237,
        0,
        0.10099244117736816
      ],
      "mesh": 11
    },
    {
      "name": "book_encyclopedia_set_01_book13",
      "translation": [
        0.3001822829246521,
        0,
        0.10099244117736816
      ],
      "mesh": 12
    },
    {
      "name": "book_encyclopedia_set_01_book14",
      "translation": [
        0.3387332856655121,
        0,
        0.10099243372678757
      ],
      "mesh": 13
    },
    {
      "name": "book_encyclopedia_set_01_book15",
      "translation": [
        0.3759635388851166,
        0,
        0.10099244117736816
      ],
      "mesh": 14
    },
    {
      "name": "book_encyclopedia_set_01_book16",
      "translation": [
        0.40813517570495605,
        0,
        0.10099244117736816
      ],
      "mesh": 15
    },
    {
      "name": "book_encyclopedia_set_01_book17",
      "translation": [
        0.44120898842811584,
        0,
        0.10099244117736816
      ],
      "mesh": 16
    },
    {
      "name": "book_encyclopedia_set_01_book18",
      "translation": [
        0.4741947054862976,
        0,
        0.10099243372678757
      ],
      "mesh": 17
    },
    {
      "name": "book_encyclopedia_set_01_book19",
      "translation": [
        0.49631625413894653,
        0,
        0.10099243372678757
      ],
      "mesh": 18
    },
    {
      "name": "book_encyclopedia_set_01_book20",
      "translation": [
        0.5200827121734619,
        0,
        0.10099243372678757
      ],
      "mesh": 19
    }
  ],
  "scenes": [
    {
      "name": "Scene",
      "nodes": [
        0,
        1,
        2,
        3,
        4,
        5,
        6,
        7,
        8,
        9,
        10,
        11,
        12,
        13,
        14,
        15,
        16,
        17,
        18,
        19
      ]
    }
  ],
  "scene": 0
}